<?xml version="1.0" standalone="no"?>
<!DOCTYPE svg PUBLIC "-//W3C//DTD SVG 20010904//EN"
 "http://www.w3.org/TR/2001/REC-SVG-20010904/DTD/svg10.dtd">
<svg version="1.0" xmlns="http://www.w3.org/2000/svg"
 width="827.000000pt" height="778.000000pt" viewBox="0 0 827.000000 778.000000"
 preserveAspectRatio="xMidYMid meet">

<g transform="translate(0.000000,778.000000) scale(0.100000,-0.100000)"
fill="#000000" stroke="none">
<path d="M2540 7750 c-166 -21 -324 -88 -455 -193 -161 -130 -277 -319 -320
-522 -23 -105 -23 -285 0 -390 57 -272 242 -509 490 -630 307 -150 672 -108
940 108 161 130 277 319 320 522 23 105 23 285 0 390 -57 272 -242 509 -490
630 -145 71 -333 104 -485 85z m221 -94 c97 -21 260 -89 246 -102 -2 -3 -39 1
-83 7 -155 21 -360 -25 -496 -113 -404 -261 -489 -793 -186 -1160 23 -28 34
-49 28 -53 -18 -11 -146 83 -218 160 -77 83 -137 187 -174 305 -20 64 -23 95
-22 210 0 114 4 148 25 216 67 219 237 405 446 489 129 52 303 68 434 41z"/>
<path d="M1800 5649 c-145 -29 -262 -150 -290 -301 -7 -36 -10 -429 -8 -1139
l3 -1084 24 -60 c33 -82 124 -173 206 -206 l60 -24 830 0 830 0 60 24 c82 33
173 124 206 206 l24 60 0 1120 0 1120 -24 60 c-33 82 -124 173 -206 206 l-60
24 -805 2 c-443 0 -825 -3 -850 -8z"/>
</g>
</svg>
